<?xml version="1.0" standalone="no"?>
<!DOCTYPE svg PUBLIC "-//W3C//DTD SVG 20010904//EN"
 "http://www.w3.org/TR/2001/REC-SVG-20010904/DTD/svg10.dtd">
<svg version="1.0" xmlns="http://www.w3.org/2000/svg"
 width="512.000000pt" height="512.000000pt" viewBox="0 0 512.000000 512.000000"
 preserveAspectRatio="xMidYMid meet">

<g transform="translate(0.000000,512.000000) scale(0.100000,-0.100000)"
fill="#000000" stroke="none">
<path d="M872 4907 c-18 -19 -22 -35 -22 -93 l0 -70 -59 -12 c-54 -11 -132
-45 -188 -82 -21 -14 -26 -12 -70 31 -27 26 -56 49 -66 52 -40 14 -94 -40 -80
-80 3 -10 26 -39 52 -66 43 -44 45 -49 31 -70 -37 -56 -71 -134 -82 -188 l-12
-59 -71 0 c-62 0 -74 -3 -93 -23 -28 -30 -28 -68 1 -95 19 -18 35 -22 93 -22
l70 0 12 -59 c11 -54 45 -132 82 -188 14 -21 12 -26 -31 -70 -26 -27 -49 -56
-52 -66 -14 -40 40 -94 80 -80 10 3 39 26 66 52 44 43 49 45 70 31 56 -37 134
-71 188 -82 l59 -12 0 -71 c0 -62 3 -74 23 -93 30 -28 68 -28 95 1 18 19 22
35 22 93 l0 70 59 12 c54 11 132 45 188 82 20 13 25 11 77 -38 61 -58 85 -64
121 -27 37 36 31 60 -27 121 -49 52 -51 57 -38 77 37 56 71 134 82 188 l12 59
71 0 c62 0 74 3 93 23 28 30 28 68 -1 95 -19 18 -35 22 -93 22 l-70 0 -12 59
c-11 54 -45 132 -82 188 -13 20 -11 25 38 77 58 61 64 85 27 121 -36 37 -60
31 -121 -27 -52 -49 -57 -51 -77 -38 -56 37 -134 71 -188 82 l-59 12 0 71 c0
62 -3 74 -23 93 -30 28 -68 28 -95 -1z m152 -312 c77 -20 133 -54 193 -118
155 -165 148 -414 -16 -570 -99 -94 -219 -132 -346 -110 -87 15 -149 46 -216
110 -100 95 -144 226 -122 358 15 86 46 149 106 212 108 115 251 157 401 118z"/>
<path d="M2403 4198 c-11 -13 -329 -540 -707 -1171 -461 -772 -686 -1157 -686
-1175 0 -33 8 -45 37 -61 30 -15 2435 -16 2464 0 11 6 38 38 60 72 l39 62 0
-432 0 -432 -541 -3 -541 -3 -19 -24 c-17 -21 -19 -42 -19 -242 l0 -219 -155
0 -155 0 0 38 c0 27 -7 45 -23 60 -21 19 -34 22 -120 22 l-97 0 0 278 c0 341
8 322 -143 322 l-97 0 0 100 c0 142 2 140 -185 140 -142 0 -147 -1 -170 -25
-23 -22 -25 -32 -25 -120 l0 -95 -245 0 -245 0 0 95 c0 88 -2 98 -25 120 -23
24 -29 25 -168 25 -187 0 -187 0 -187 -140 l0 -100 -98 0 c-156 0 -142 54
-142 -551 l0 -506 23 -21 23 -22 820 0 821 0 21 23 c14 15 22 36 22 60 l0 37
98 0 c89 0 100 2 120 23 11 12 22 38 24 57 l3 35 205 3 c195 2 206 3 223 23
15 19 17 47 17 245 l0 224 490 0 490 0 0 -55 0 -55 -135 0 c-175 0 -175 0
-175 -140 l0 -100 -128 0 c-176 0 -172 4 -172 -191 0 -139 1 -146 23 -167 l23
-22 820 0 821 0 21 23 c21 22 22 33 22 168 0 193 4 189 -173 189 l-127 0 0
100 c0 141 1 140 -180 140 l-140 0 0 555 0 554 23 12 c12 7 25 17 29 23 4 6 8
214 8 461 l0 450 380 634 c209 348 380 643 380 655 0 12 -9 32 -20 44 l-21 22
-1233 0 -1233 0 -20 -22z m714 -125 c-46 -85 -184 -306 -192 -309 -5 -2 -148
-3 -317 -2 l-306 3 94 158 95 157 315 0 c173 0 313 -3 311 -7z m708 -150 l-93
-158 -317 -3 c-174 -1 -315 2 -313 6 1 5 44 77 93 160 l90 152 317 0 317 0
-94 -157z m903 149 c-1 -5 -43 -77 -93 -160 l-90 -152 -322 0 c-178 0 -323 3
-323 7 0 4 41 76 91 160 l91 153 325 0 c179 0 323 -4 321 -8z m-1975 -612
l-96 -160 -313 0 c-173 0 -314 3 -314 6 0 3 42 75 92 160 l93 154 317 0 317 0
-96 -160z m885 152 c-1 -5 -43 -77 -93 -160 l-90 -152 -319 0 -318 0 14 23 c8
12 52 84 97 160 l82 137 315 0 c174 0 314 -4 312 -8z m728 -149 l-94 -158
-327 -3 c-180 -1 -325 2 -323 6 1 5 44 77 93 160 l90 152 327 0 327 0 -93
-157z m-1799 -310 c-46 -85 -184 -306 -192 -309 -5 -2 -148 -3 -316 -2 l-307
3 72 120 c39 67 81 137 93 158 l22 37 316 0 c174 0 314 -3 312 -7z m706 -153
l-96 -160 -314 0 c-173 0 -313 4 -311 8 2 5 44 77 93 160 l90 152 317 0 317 0
-96 -160z m905 152 c-1 -5 -43 -77 -93 -160 l-90 -152 -322 0 c-178 0 -323 3
-323 7 0 4 41 76 91 160 l91 153 325 0 c179 0 323 -4 321 -8z m-1888 -458 c0
-3 -42 -75 -92 -160 l-93 -154 -312 0 c-172 0 -313 3 -313 6 0 3 42 75 92 160
l93 154 312 0 c172 0 313 -3 313 -6z m797 -1 c-46 -85 -184 -306 -192 -309 -5
-2 -148 -3 -317 -2 l-306 3 94 158 95 157 315 0 c173 0 313 -3 311 -7z m726
-153 l-96 -160 -324 0 c-179 0 -323 4 -321 8 2 5 44 77 93 160 l90 152 327 0
327 0 -96 -160z m217 -200 l0 -280 -166 0 c-134 0 -165 3 -162 14 3 13 321
546 325 546 2 0 3 -126 3 -280z m-2013 -107 c-46 -85 -184 -306 -192 -309 -5
-2 -149 -3 -318 -2 l-307 3 81 135 c44 74 87 145 95 158 l14 22 316 0 c173 0
313 -3 311 -7z m706 -153 l-96 -160 -313 0 c-173 0 -314 3 -314 6 0 3 42 75
92 160 l93 154 317 0 317 0 -96 -160z m904 153 c-64 -114 -182 -306 -191 -309
-6 -2 -154 -3 -328 -2 l-316 3 94 158 95 157 325 0 c179 0 323 -3 321 -7z
m343 -868 l0 -555 -110 0 -110 0 0 555 0 555 110 0 110 0 0 -555z m-3280 -25
l0 -50 -50 0 -50 0 0 50 0 50 50 0 50 0 0 -50z m870 0 l0 -50 -50 0 -50 0 0
50 0 50 50 0 50 0 0 -50z m240 -600 l0 -410 -725 0 -725 0 0 410 0 410 725 0
725 0 0 -410z m2490 -120 l0 -50 -425 0 -425 0 0 50 0 50 425 0 425 0 0 -50z
m-2250 -120 l0 -50 -50 0 -50 0 0 50 0 50 50 0 50 0 0 -50z m2550 -120 l0 -50
-725 0 -725 0 0 50 0 50 725 0 725 0 0 -50z"/>
<path d="M1026 1031 c-16 -17 -106 -271 -106 -299 0 -7 11 -24 25 -37 18 -19
35 -25 70 -25 25 0 45 -1 45 -3 0 -2 -11 -37 -25 -77 -30 -87 -31 -121 -7
-143 24 -22 75 -22 95 1 18 20 107 269 107 300 0 32 -46 62 -96 62 -24 0 -44
2 -44 5 0 2 11 34 25 71 30 79 32 125 7 147 -25 23 -75 21 -96 -2z"/>
<path d="M472 857 c-21 -22 -22 -33 -22 -173 0 -144 1 -151 23 -172 30 -29 62
-28 92 3 24 23 25 28 25 170 0 142 -1 147 -25 170 -30 31 -65 32 -93 2z"/>
</g>
</svg>
