<?xml version="1.0" encoding="utf-8"?>
<!-- Svg Vector Icons : http://www.onlinewebfonts.com/icon -->
<!DOCTYPE svg PUBLIC "-//W3C//DTD SVG 1.1//EN" "http://www.w3.org/Graphics/SVG/1.1/DTD/svg11.dtd">
<svg version="1.1" xmlns="http://www.w3.org/2000/svg" xmlns:xlink="http://www.w3.org/1999/xlink" x="0px" y="0px" viewBox="0 0 1000 1000" enable-background="new 0 0 1000 1000" xml:space="preserve">
<metadata> Svg Vector Icons : http://www.onlinewebfonts.com/icon </metadata>
<g><path d="M500,990C229.8,990,10,770.2,10,500C10,229.8,229.8,10,500,10c270.2,0,490,219.8,490,490S770.2,990,500,990z M500,48.7C251.1,48.7,48.7,251.1,48.7,500c0,248.8,202.4,451.3,451.3,451.3c248.8,0,451.3-202.5,451.3-451.3C951.3,251.1,748.8,48.7,500,48.7z"/><path d="M375,573v136.2h48.9V564l-20-19.9L375,573z"/><path d="M320.9,709.3h31.3V595.8l-31.3,31.3V709.3z"/><path d="M584.4,481.8v227.5h103.4V378.4L584.4,481.8z"/><path d="M501.5,564.6v144.6h60v-201h-3.7L501.5,564.6z"/><path d="M463,603.2l-10.8-10.7l-5.5-5.6v122.4h32V587.5l-4.9,5L463,603.2z"/><path d="M695.5,349.2l49.1,49L726.1,291l-107.5-18.6l49.8,49.6L463,527.2l-59.2-59L265,607.1l27.2,27.2l111.7-111.8l32,31.9h-0.1l27.2,27.2l0,0l0,0l27.2-27.2l0,0L695.5,349.2z"/></g>
</svg>