<?xml version="1.0" standalone="no"?>
<!DOCTYPE svg PUBLIC "-//W3C//DTD SVG 20010904//EN"
 "http://www.w3.org/TR/2001/REC-SVG-20010904/DTD/svg10.dtd">
<svg version="1.0" xmlns="http://www.w3.org/2000/svg"
 width="1000.000000pt" height="700.000000pt" viewBox="0 0 1000.000000 700.000000"
 preserveAspectRatio="xMidYMid meet">

<g transform="translate(0.000000,700.000000) scale(0.100000,-0.100000)"
fill="#000000" stroke="none">
<path d="M4920 6977 c23 -14 50 -22 80 -22 30 0 57 8 80 22 l35 23 -115 0
-115 0 35 -23z"/>
<path d="M1820 6333 c-35 -7 -89 -50 -102 -81 -11 -29 -13 -37 -48 -202 -12
-58 -26 -123 -31 -145 -5 -22 -13 -60 -18 -85 -11 -56 -44 -215 -71 -340 -11
-52 -34 -158 -50 -235 -43 -206 -75 -362 -110 -525 -17 -80 -40 -190 -52 -245
-11 -55 -24 -118 -29 -140 -5 -22 -14 -62 -19 -90 -5 -27 -14 -70 -20 -95 -6
-25 -15 -67 -20 -95 -5 -27 -14 -68 -19 -90 -8 -37 -26 -120 -71 -335 -10 -47
-27 -130 -39 -185 -12 -55 -37 -174 -56 -265 -77 -371 -95 -459 -117 -550 -20
-87 -22 -124 -25 -452 -4 -395 -4 -394 59 -440 l33 -23 1770 -5 1770 -5 3
-399 c1 -286 -1 -403 -9 -412 -9 -12 -113 -14 -592 -14 l-580 0 -33 -25 c-57
-44 -59 -50 -64 -315 l-5 -245 -740 -5 c-562 -4 -745 -8 -762 -17 -32 -19 -66
-80 -66 -121 -1 -54 27 -105 72 -130 l39 -22 3182 0 3182 0 39 22 c69 39 93
132 51 200 -42 67 7 62 -807 68 l-740 5 -5 245 c-5 265 -7 271 -64 315 l-33
25 -580 0 c-479 0 -583 2 -592 14 -8 9 -10 126 -9 412 l3 399 1770 5 1770 5
33 23 c63 46 63 45 59 440 -3 328 -5 365 -25 452 -22 91 -40 179 -117 550 -19
91 -44 210 -56 265 -12 55 -29 138 -39 185 -45 215 -63 298 -71 335 -5 22 -14
63 -19 90 -5 28 -14 70 -20 95 -6 25 -15 68 -20 95 -5 28 -14 68 -19 90 -5 22
-18 86 -30 142 -11 56 -27 132 -35 170 -9 37 -45 210 -81 383 -86 411 -104
497 -115 545 -10 42 -36 168 -51 245 -5 25 -13 63 -18 85 -5 22 -19 87 -31
145 -35 165 -37 173 -48 202 -6 14 -28 39 -48 55 l-37 28 -3176 1 c-1747 1
-3187 -1 -3201 -3z m1966 -385 c-4 -51 -11 -151 -16 -223 -5 -71 -15 -200 -21
-285 -6 -85 -14 -198 -17 -250 l-7 -95 -969 -3 c-534 -1 -973 1 -977 5 -4 5 1
49 12 98 10 50 35 164 54 255 18 91 48 233 66 315 17 83 35 170 40 195 5 25
12 53 15 63 5 16 57 17 916 17 l911 0 -7 -92z m2136 -23 c3 -60 11 -175 17
-255 22 -309 33 -467 34 -520 l2 -55 -975 0 -975 0 1 45 c1 43 14 236 34 525
5 72 12 180 16 240 3 61 7 116 10 123 3 10 191 12 916 10 l913 -3 7 -110z
m2116 78 c17 -71 32 -139 87 -403 30 -146 66 -317 79 -380 14 -63 21 -118 17
-123 -4 -4 -443 -6 -977 -5 l-969 3 -7 95 c-3 52 -11 165 -17 250 -6 85 -16
214 -21 285 -5 72 -12 172 -16 223 l-7 92 911 0 911 0 9 -37z m-4346 -1318
c-1 -60 -6 -168 -12 -240 -10 -139 -26 -352 -36 -502 l-6 -93 -1064 0 c-585 0
-1064 3 -1064 8 0 4 9 50 21 102 11 52 29 140 40 195 12 55 25 118 30 140 5
22 14 63 19 90 5 28 14 68 19 90 18 79 54 251 59 280 2 17 10 33 16 37 6 4
454 7 996 5 l985 -2 -3 -110z m2302 106 c7 -11 19 -161 46 -561 11 -168 22
-322 25 -342 l5 -38 -1070 0 -1070 0 5 38 c3 20 14 174 25 342 27 400 39 550
46 561 7 12 1981 12 1988 0z m2292 1 c6 -4 14 -20 16 -37 5 -29 41 -201 59
-280 5 -22 14 -62 19 -90 5 -27 14 -68 19 -90 5 -22 18 -85 30 -140 11 -55 29
-143 40 -195 12 -52 21 -98 21 -102 0 -5 -479 -8 -1064 -8 l-1064 0 -6 93 c-9
134 -25 353 -36 502 -18 242 -22 334 -15 344 7 13 1962 16 1981 3z m-4679
-1364 c-4 -68 -11 -184 -16 -258 -6 -74 -15 -205 -21 -290 -5 -85 -13 -183
-16 -217 l-6 -62 -523 -3 c-511 -3 -524 -3 -551 -24 -50 -37 -69 -72 -69 -124
0 -52 19 -87 69 -124 l27 -21 3145 -3 3144 -2 0 -145 0 -145 -3790 0 -3790 0
0 144 0 145 373 3 c366 3 372 3 403 25 48 34 66 69 66 125 0 40 -5 57 -29 86
-17 20 -45 42 -64 49 -24 8 -137 12 -373 12 l-339 1 6 38 c4 20 11 57 17 82 5
25 14 65 19 90 5 25 19 92 31 150 35 167 56 264 89 423 17 82 33 153 37 158 3
5 440 9 1086 9 l1081 0 -6 -122z m2491 -45 c7 -93 17 -233 23 -313 5 -80 14
-195 20 -256 5 -60 9 -133 9 -162 l0 -52 -1150 0 -1150 0 0 52 c0 29 4 102 9
162 6 61 15 176 20 256 6 80 16 220 23 313 l12 167 1086 0 1086 0 12 -167z
m2456 159 c5 -8 21 -84 67 -307 12 -55 25 -116 29 -135 12 -54 51 -240 61
-290 5 -25 14 -65 19 -90 6 -25 13 -62 17 -82 l6 -38 -1151 0 -1150 0 -6 63
c-3 34 -11 132 -16 217 -6 85 -15 216 -21 290 -5 74 -12 190 -16 258 l-6 122
1081 0 c594 0 1083 -4 1086 -8z m-3404 -2241 c0 -364 -2 -410 -16 -415 -20 -8
-248 -8 -268 0 -14 5 -16 51 -16 415 l0 409 150 0 150 0 0 -409z m1275 -861
l0 -145 -1425 0 -1425 0 -3 134 c-1 74 0 141 2 148 4 11 266 13 1428 11 l1423
-3 0 -145z"/>
</g>
</svg>
