<?xml version="1.0"?>
<svg xmlns="http://www.w3.org/2000/svg" viewBox="0 0 50 50" enable-background="new 0 0 50 50">
    <path style="text-indent:0;text-align:start;line-height:normal;text-transform:none;block-progression:tb;-inkscape-font-specification:Bitstream Vera Sans" d="M 5 2 C 3.3545455 2 2 3.3545455 2 5 L 2 45 C 2 45.672701 2.2136392 46.30972 2.59375 46.8125 A 1.0001 1.0001 0 0 0 3.1875 47.40625 C 3.6902797 47.786361 4.3272995 48 5 48 L 45 48 C 46.645455 48 48 46.645455 48 45 L 48 5 C 48 4.2486564 47.713581 3.5600216 47.25 3.03125 A 1.0001 1.0001 0 0 0 47.21875 3 C 47.203577 2.9831901 47.203041 2.9539662 47.1875 2.9375 A 1.0001 1.0001 0 0 0 47.125 2.875 C 47.098585 2.8485846 47.058619 2.8379314 47.03125 2.8125 A 1.0001 1.0001 0 0 0 46.875 2.6875 C 46.358304 2.2670545 45.711417 2 45 2 L 5 2 z M 5 4 L 44.59375 4 L 4 44.59375 L 4 5 C 4 4.4454545 4.4454545 4 5 4 z M 46 5.40625 L 46 45 C 46 45.554545 45.554545 46 45 46 L 5.40625 46 L 46 5.40625 z M 12.96875 11.03125 C 12.762288 11.02658 12.570986 11.045746 12.375 11.0625 C 11.85237 11.10718 11.370153 11.205701 10.9375 11.375 C 9.2068875 12.052196 8.21875 13.375 8.21875 13.375 L 9.78125 14.625 C 9.78125 14.625 10.543112 13.697804 11.6875 13.25 C 12.831888 12.802196 14.240763 12.678263 16.28125 14.71875 C 18.740763 17.178263 21.331888 17.302196 23.0625 16.625 C 24.793112 15.947804 25.78125 14.625 25.78125 14.625 L 24.21875 13.375 C 24.21875 13.375 23.456888 14.302196 22.3125 14.75 C 21.168112 15.197804 19.759237 15.321737 17.71875 13.28125 C 16.104694 11.667194 14.413981 11.063942 12.96875 11.03125 z M 26 33 L 26 35 L 42 35 L 42 33 L 26 33 z M 26 37 L 26 39 L 32 39 L 32 37 L 26 37 z M 36 37 L 36 39 L 42 39 L 42 37 L 36 37 z" overflow="visible" enable-background="accumulate" font-family="Bitstream Vera Sans"/>
</svg>
